<svg
  xmlns="http://www.w3.org/2000/svg"
  viewBox="0 0 64 64"
  width="64"
  height="64"
  role="img"
  aria-labelledby="title"
>
  <title id="title">Servis Takip</title>

  <rect
    x="3"
    y="3"
    width="58"
    height="58"
    rx="15"
    fill="#2563EB"
  />

  <path
    d="
      M42 15
      C37 12 29 12 24 15
      C20 17 18 20 19 23
      C20 27 24 28.5 30 30.5
      L35.5 32.2
      C43 34.5 46.5 38 45.5 43
      C44.3 49 38.3 52 31 52
      C25 52 20 50 17 47
    "
    fill="none"
    stroke="#FFFFFF"
    stroke-width="7.5"
    stroke-linecap="round"
    stroke-linejoin="round"
  />

  <circle
    cx="42"
    cy="15"
    r="5.4"
    fill="#FFFFFF"
  />

  <path
    d="M42 11.8L44.8 13.4V16.6L42 18.2L39.2 16.6V13.4Z"
    fill="#2563EB"
  />
</svg>
